<?xml version="1.0" encoding="UTF-8" standalone="no"?>
<!DOCTYPE svg PUBLIC "-//W3C//DTD SVG 1.1//EN"
 "http://www.w3.org/Graphics/SVG/1.1/DTD/svg11.dtd">
<!-- Generated by graphviz version 2.40.1 (20161225.0304)
 -->
<!-- Title: Tree Pages: 1 -->
<svg width="1040pt" height="581pt"
 viewBox="0.00 0.00 1040.00 581.00" xmlns="http://www.w3.org/2000/svg" xmlns:xlink="http://www.w3.org/1999/xlink">
<g id="graph0" class="graph" transform="scale(1 1) rotate(0) translate(4 577)">
<title>Tree</title>
<polygon fill="#ffffff" stroke="transparent" points="-4,4 -4,-577 1036,-577 1036,4 -4,4"/>
<!-- 0 -->
<g id="node1" class="node">
<title>0</title>
<path fill="#399de5" fill-opacity="0.101961" stroke="#000000" d="M788,-573C788,-573 635,-573 635,-573 629,-573 623,-567 623,-561 623,-561 623,-517 623,-517 623,-511 629,-505 635,-505 635,-505 788,-505 788,-505 794,-505 800,-511 800,-517 800,-517 800,-561 800,-561 800,-567 794,-573 788,-573"/>
<text text-anchor="middle" x="711.5" y="-557.8" font-family="Helvetica,sans-Serif" font-size="14.00" fill="#000000">httphidden &lt;= 0.5</text>
<text text-anchor="middle" x="711.5" y="-542.8" font-family="Helvetica,sans-Serif" font-size="14.00" fill="#000000">samples = 100.0%</text>
<text text-anchor="middle" x="711.5" y="-527.8" font-family="Helvetica,sans-Serif" font-size="14.00" fill="#000000">value = [0.474, 0.526]</text>
<text text-anchor="middle" x="711.5" y="-512.8" font-family="Helvetica,sans-Serif" font-size="14.00" fill="#000000">class = spam</text>
</g>
<!-- 1 -->
<g id="node2" class="node">
<title>1</title>
<path fill="#e58139" fill-opacity="0.329412" stroke="#000000" d="M691,-469C691,-469 538,-469 538,-469 532,-469 526,-463 526,-457 526,-457 526,-413 526,-413 526,-407 532,-401 538,-401 538,-401 691,-401 691,-401 697,-401 703,-407 703,-413 703,-413 703,-457 703,-457 703,-463 697,-469 691,-469"/>
<text text-anchor="middle" x="614.5" y="-453.8" font-family="Helvetica,sans-Serif" font-size="14.00" fill="#000000">subscribe &lt;= 0.5</text>
<text text-anchor="middle" x="614.5" y="-438.8" font-family="Helvetica,sans-Serif" font-size="14.00" fill="#000000">samples = 77.6%</text>
<text text-anchor="middle" x="614.5" y="-423.8" font-family="Helvetica,sans-Serif" font-size="14.00" fill="#000000">value = [0.598, 0.402]</text>
<text text-anchor="middle" x="614.5" y="-408.8" font-family="Helvetica,sans-Serif" font-size="14.00" fill="#000000">class = notspam</text>
</g>
<!-- 0&#45;&gt;1 -->
<g id="edge1" class="edge">
<title>0&#45;&gt;1</title>
<path fill="none" stroke="#000000" d="M679.7386,-504.9465C671.2806,-495.8782 662.0486,-485.9799 653.2613,-476.5585"/>
<polygon fill="#000000" stroke="#000000" points="655.713,-474.0557 646.3328,-469.13 650.594,-478.8302 655.713,-474.0557"/>
<text text-anchor="middle" x="645.4627" y="-490.4148" font-family="Helvetica,sans-Serif" font-size="14.00" fill="#000000">True</text>
</g>
<!-- 12 -->
<g id="node13" class="node">
<title>12</title>
<path fill="#399de5" fill-opacity="0.956863" stroke="#000000" d="M886,-469C886,-469 733,-469 733,-469 727,-469 721,-463 721,-457 721,-457 721,-413 721,-413 721,-407 727,-401 733,-401 733,-401 886,-401 886,-401 892,-401 898,-407 898,-413 898,-413 898,-457 898,-457 898,-463 892,-469 886,-469"/>
<text text-anchor="middle" x="809.5" y="-453.8" font-family="Helvetica,sans-Serif" font-size="14.00" fill="#000000">psy gangnam &lt;= 0.5</text>
<text text-anchor="middle" x="809.5" y="-438.8" font-family="Helvetica,sans-Serif" font-size="14.00" fill="#000000">samples = 22.4%</text>
<text text-anchor="middle" x="809.5" y="-423.8" font-family="Helvetica,sans-Serif" font-size="14.00" fill="#000000">value = [0.042, 0.958]</text>
<text text-anchor="middle" x="809.5" y="-408.8" font-family="Helvetica,sans-Serif" font-size="14.00" fill="#000000">class = spam</text>
</g>
<!-- 0&#45;&gt;12 -->
<g id="edge12" class="edge">
<title>0&#45;&gt;12</title>
<path fill="none" stroke="#000000" d="M743.5889,-504.9465C752.134,-495.8782 761.4613,-485.9799 770.3391,-476.5585"/>
<polygon fill="#000000" stroke="#000000" points="773.0283,-478.8082 777.339,-469.13 767.9337,-474.0076 773.0283,-478.8082"/>
<text text-anchor="middle" x="778.0813" y="-490.419" font-family="Helvetica,sans-Serif" font-size="14.00" fill="#000000">False</text>
</g>
<!-- 2 -->
<g id="node3" class="node">
<title>2</title>
<path fill="#e58139" fill-opacity="0.564706" stroke="#000000" d="M522,-365C522,-365 369,-365 369,-365 363,-365 357,-359 357,-353 357,-353 357,-309 357,-309 357,-303 363,-297 369,-297 369,-297 522,-297 522,-297 528,-297 534,-303 534,-309 534,-309 534,-353 534,-353 534,-359 528,-365 522,-365"/>
<text text-anchor="middle" x="445.5" y="-349.8" font-family="Helvetica,sans-Serif" font-size="14.00" fill="#000000">channel &lt;= 0.5</text>
<text text-anchor="middle" x="445.5" y="-334.8" font-family="Helvetica,sans-Serif" font-size="14.00" fill="#000000">samples = 66.7%</text>
<text text-anchor="middle" x="445.5" y="-319.8" font-family="Helvetica,sans-Serif" font-size="14.00" fill="#000000">value = [0.696, 0.304]</text>
<text text-anchor="middle" x="445.5" y="-304.8" font-family="Helvetica,sans-Serif" font-size="14.00" fill="#000000">class = notspam</text>
</g>
<!-- 1&#45;&gt;2 -->
<g id="edge2" class="edge">
<title>1&#45;&gt;2</title>
<path fill="none" stroke="#000000" d="M559.1631,-400.9465C543.4058,-391.2497 526.1063,-380.6039 509.8613,-370.6069"/>
<polygon fill="#000000" stroke="#000000" points="511.3122,-367.3902 500.9612,-365.13 507.6435,-373.3518 511.3122,-367.3902"/>
</g>
<!-- 11 -->
<g id="node12" class="node">
<title>11</title>
<path fill="#399de5" stroke="#000000" d="M683,-357.5C683,-357.5 564,-357.5 564,-357.5 558,-357.5 552,-351.5 552,-345.5 552,-345.5 552,-316.5 552,-316.5 552,-310.5 558,-304.5 564,-304.5 564,-304.5 683,-304.5 683,-304.5 689,-304.5 695,-310.5 695,-316.5 695,-316.5 695,-345.5 695,-345.5 695,-351.5 689,-357.5 683,-357.5"/>
<text text-anchor="middle" x="623.5" y="-342.3" font-family="Helvetica,sans-Serif" font-size="14.00" fill="#000000">samples = 10.9%</text>
<text text-anchor="middle" x="623.5" y="-327.3" font-family="Helvetica,sans-Serif" font-size="14.00" fill="#000000">value = [0.0, 1.0]</text>
<text text-anchor="middle" x="623.5" y="-312.3" font-family="Helvetica,sans-Serif" font-size="14.00" fill="#000000">class = spam</text>
</g>
<!-- 1&#45;&gt;11 -->
<g id="edge11" class="edge">
<title>1&#45;&gt;11</title>
<path fill="none" stroke="#000000" d="M617.4469,-400.9465C618.3716,-390.2621 619.3959,-378.4254 620.3349,-367.5742"/>
<polygon fill="#000000" stroke="#000000" points="623.8278,-367.8067 621.2031,-357.5422 616.8539,-367.2031 623.8278,-367.8067"/>
</g>
<!-- 3 -->
<g id="node4" class="node">
<title>3</title>
<path fill="#e58139" fill-opacity="0.725490" stroke="#000000" d="M434,-261C434,-261 281,-261 281,-261 275,-261 269,-255 269,-249 269,-249 269,-205 269,-205 269,-199 275,-193 281,-193 281,-193 434,-193 434,-193 440,-193 446,-199 446,-205 446,-205 446,-249 446,-249 446,-255 440,-261 434,-261"/>
<text text-anchor="middle" x="357.5" y="-245.8" font-family="Helvetica,sans-Serif" font-size="14.00" fill="#000000">check &lt;= 0.5</text>
<text text-anchor="middle" x="357.5" y="-230.8" font-family="Helvetica,sans-Serif" font-size="14.00" fill="#000000">samples = 59.2%</text>
<text text-anchor="middle" x="357.5" y="-215.8" font-family="Helvetica,sans-Serif" font-size="14.00" fill="#000000">value = [0.784, 0.216]</text>
<text text-anchor="middle" x="357.5" y="-200.8" font-family="Helvetica,sans-Serif" font-size="14.00" fill="#000000">class = notspam</text>
</g>
<!-- 2&#45;&gt;3 -->
<g id="edge3" class="edge">
<title>2&#45;&gt;3</title>
<path fill="none" stroke="#000000" d="M416.6855,-296.9465C409.0883,-287.968 400.8026,-278.1758 392.9018,-268.8385"/>
<polygon fill="#000000" stroke="#000000" points="395.5105,-266.5031 386.3792,-261.13 390.1668,-271.0247 395.5105,-266.5031"/>
</g>
<!-- 10 -->
<g id="node11" class="node">
<title>10</title>
<path fill="#399de5" stroke="#000000" d="M593,-253.5C593,-253.5 476,-253.5 476,-253.5 470,-253.5 464,-247.5 464,-241.5 464,-241.5 464,-212.5 464,-212.5 464,-206.5 470,-200.5 476,-200.5 476,-200.5 593,-200.5 593,-200.5 599,-200.5 605,-206.5 605,-212.5 605,-212.5 605,-241.5 605,-241.5 605,-247.5 599,-253.5 593,-253.5"/>
<text text-anchor="middle" x="534.5" y="-238.3" font-family="Helvetica,sans-Serif" font-size="14.00" fill="#000000">samples = 7.5%</text>
<text text-anchor="middle" x="534.5" y="-223.3" font-family="Helvetica,sans-Serif" font-size="14.00" fill="#000000">value = [0.0, 1.0]</text>
<text text-anchor="middle" x="534.5" y="-208.3" font-family="Helvetica,sans-Serif" font-size="14.00" fill="#000000">class = spam</text>
</g>
<!-- 2&#45;&gt;10 -->
<g id="edge10" class="edge">
<title>2&#45;&gt;10</title>
<path fill="none" stroke="#000000" d="M474.6419,-296.9465C484.4452,-285.491 495.3819,-272.711 505.1975,-261.2412"/>
<polygon fill="#000000" stroke="#000000" points="507.9433,-263.4156 511.786,-253.5422 502.6249,-258.8642 507.9433,-263.4156"/>
</g>
<!-- 4 -->
<g id="node5" class="node">
<title>4</title>
<path fill="#e58139" fill-opacity="0.831373" stroke="#000000" d="M337,-157C337,-157 184,-157 184,-157 178,-157 172,-151 172,-145 172,-145 172,-101 172,-101 172,-95 178,-89 184,-89 184,-89 337,-89 337,-89 343,-89 349,-95 349,-101 349,-101 349,-145 349,-145 349,-151 343,-157 337,-157"/>
<text text-anchor="middle" x="260.5" y="-141.8" font-family="Helvetica,sans-Serif" font-size="14.00" fill="#000000">follow &lt;= 0.5</text>
<text text-anchor="middle" x="260.5" y="-126.8" font-family="Helvetica,sans-Serif" font-size="14.00" fill="#000000">samples = 50.2%</text>
<text text-anchor="middle" x="260.5" y="-111.8" font-family="Helvetica,sans-Serif" font-size="14.00" fill="#000000">value = [0.857, 0.143]</text>
<text text-anchor="middle" x="260.5" y="-96.8" font-family="Helvetica,sans-Serif" font-size="14.00" fill="#000000">class = notspam</text>
</g>
<!-- 3&#45;&gt;4 -->
<g id="edge4" class="edge">
<title>3&#45;&gt;4</title>
<path fill="none" stroke="#000000" d="M325.7386,-192.9465C317.2806,-183.8782 308.0486,-173.9799 299.2613,-164.5585"/>
<polygon fill="#000000" stroke="#000000" points="301.713,-162.0557 292.3328,-157.13 296.594,-166.8302 301.713,-162.0557"/>
</g>
<!-- 7 -->
<g id="node8" class="node">
<title>7</title>
<path fill="#399de5" fill-opacity="0.388235" stroke="#000000" d="M532,-157C532,-157 379,-157 379,-157 373,-157 367,-151 367,-145 367,-145 367,-101 367,-101 367,-95 373,-89 379,-89 379,-89 532,-89 532,-89 538,-89 544,-95 544,-101 544,-101 544,-145 544,-145 544,-151 538,-157 532,-157"/>
<text text-anchor="middle" x="455.5" y="-141.8" font-family="Helvetica,sans-Serif" font-size="14.00" fill="#000000">just &lt;= 0.5</text>
<text text-anchor="middle" x="455.5" y="-126.8" font-family="Helvetica,sans-Serif" font-size="14.00" fill="#000000">samples = 9.0%</text>
<text text-anchor="middle" x="455.5" y="-111.8" font-family="Helvetica,sans-Serif" font-size="14.00" fill="#000000">value = [0.379, 0.621]</text>
<text text-anchor="middle" x="455.5" y="-96.8" font-family="Helvetica,sans-Serif" font-size="14.00" fill="#000000">class = spam</text>
</g>
<!-- 3&#45;&gt;7 -->
<g id="edge7" class="edge">
<title>3&#45;&gt;7</title>
<path fill="none" stroke="#000000" d="M389.5889,-192.9465C398.134,-183.8782 407.4613,-173.9799 416.3391,-164.5585"/>
<polygon fill="#000000" stroke="#000000" points="419.0283,-166.8082 423.339,-157.13 413.9337,-162.0076 419.0283,-166.8082"/>
</g>
<!-- 5 -->
<g id="node6" class="node">
<title>5</title>
<path fill="#e58139" fill-opacity="0.870588" stroke="#000000" d="M165,-53C165,-53 12,-53 12,-53 6,-53 0,-47 0,-41 0,-41 0,-12 0,-12 0,-6 6,0 12,0 12,0 165,0 165,0 171,0 177,-6 177,-12 177,-12 177,-41 177,-41 177,-47 171,-53 165,-53"/>
<text text-anchor="middle" x="88.5" y="-37.8" font-family="Helvetica,sans-Serif" font-size="14.00" fill="#000000">samples = 48.6%</text>
<text text-anchor="middle" x="88.5" y="-22.8" font-family="Helvetica,sans-Serif" font-size="14.00" fill="#000000">value = [0.885, 0.115]</text>
<text text-anchor="middle" x="88.5" y="-7.8" font-family="Helvetica,sans-Serif" font-size="14.00" fill="#000000">class = notspam</text>
</g>
<!-- 4&#45;&gt;5 -->
<g id="edge5" class="edge">
<title>4&#45;&gt;5</title>
<path fill="none" stroke="#000000" d="M199.8592,-88.9777C181.9867,-78.9504 162.5095,-68.0228 144.9139,-58.1508"/>
<polygon fill="#000000" stroke="#000000" points="146.3363,-54.9356 135.9025,-53.095 142.9112,-61.0405 146.3363,-54.9356"/>
</g>
<!-- 6 -->
<g id="node7" class="node">
<title>6</title>
<path fill="#399de5" stroke="#000000" d="M324,-53C324,-53 207,-53 207,-53 201,-53 195,-47 195,-41 195,-41 195,-12 195,-12 195,-6 201,0 207,0 207,0 324,0 324,0 330,0 336,-6 336,-12 336,-12 336,-41 336,-41 336,-47 330,-53 324,-53"/>
<text text-anchor="middle" x="265.5" y="-37.8" font-family="Helvetica,sans-Serif" font-size="14.00" fill="#000000">samples = 1.6%</text>
<text text-anchor="middle" x="265.5" y="-22.8" font-family="Helvetica,sans-Serif" font-size="14.00" fill="#000000">value = [0.0, 1.0]</text>
<text text-anchor="middle" x="265.5" y="-7.8" font-family="Helvetica,sans-Serif" font-size="14.00" fill="#000000">class = spam</text>
</g>
<!-- 4&#45;&gt;6 -->
<g id="edge6" class="edge">
<title>4&#45;&gt;6</title>
<path fill="none" stroke="#000000" d="M262.2628,-88.9777C262.6946,-80.6449 263.1585,-71.6903 263.5966,-63.2364"/>
<polygon fill="#000000" stroke="#000000" points="267.0918,-63.4162 264.1141,-53.2485 260.1012,-63.0539 267.0918,-63.4162"/>
</g>
<!-- 8 -->
<g id="node9" class="node">
<title>8</title>
<path fill="#399de5" fill-opacity="0.776471" stroke="#000000" d="M528,-53C528,-53 375,-53 375,-53 369,-53 363,-47 363,-41 363,-41 363,-12 363,-12 363,-6 369,0 375,0 375,0 528,0 528,0 534,0 540,-6 540,-12 540,-12 540,-41 540,-41 540,-47 534,-53 528,-53"/>
<text text-anchor="middle" x="451.5" y="-37.8" font-family="Helvetica,sans-Serif" font-size="14.00" fill="#000000">samples = 6.9%</text>
<text text-anchor="middle" x="451.5" y="-22.8" font-family="Helvetica,sans-Serif" font-size="14.00" fill="#000000">value = [0.182, 0.818]</text>
<text text-anchor="middle" x="451.5" y="-7.8" font-family="Helvetica,sans-Serif" font-size="14.00" fill="#000000">class = spam</text>
</g>
<!-- 7&#45;&gt;8 -->
<g id="edge8" class="edge">
<title>7&#45;&gt;8</title>
<path fill="none" stroke="#000000" d="M454.0897,-88.9777C453.7481,-80.7364 453.3813,-71.887 453.0343,-63.5153"/>
<polygon fill="#000000" stroke="#000000" points="456.52,-63.0949 452.6087,-53.2485 449.526,-63.3849 456.52,-63.0949"/>
</g>
<!-- 9 -->
<g id="node10" class="node">
<title>9</title>
<path fill="#e58139" stroke="#000000" d="M687,-53C687,-53 570,-53 570,-53 564,-53 558,-47 558,-41 558,-41 558,-12 558,-12 558,-6 564,0 570,0 570,0 687,0 687,0 693,0 699,-6 699,-12 699,-12 699,-41 699,-41 699,-47 693,-53 687,-53"/>
<text text-anchor="middle" x="628.5" y="-37.8" font-family="Helvetica,sans-Serif" font-size="14.00" fill="#000000">samples = 2.2%</text>
<text text-anchor="middle" x="628.5" y="-22.8" font-family="Helvetica,sans-Serif" font-size="14.00" fill="#000000">value = [1.0, 0.0]</text>
<text text-anchor="middle" x="628.5" y="-7.8" font-family="Helvetica,sans-Serif" font-size="14.00" fill="#000000">class = notspam</text>
</g>
<!-- 7&#45;&gt;9 -->
<g id="edge9" class="edge">
<title>7&#45;&gt;9</title>
<path fill="none" stroke="#000000" d="M516.4933,-88.9777C534.4697,-78.9504 554.0602,-68.0228 571.7581,-58.1508"/>
<polygon fill="#000000" stroke="#000000" points="573.7936,-61.0231 580.8219,-53.095 570.3836,-54.9099 573.7936,-61.0231"/>
</g>
<!-- 13 -->
<g id="node14" class="node">
<title>13</title>
<path fill="#399de5" stroke="#000000" d="M861,-357.5C861,-357.5 742,-357.5 742,-357.5 736,-357.5 730,-351.5 730,-345.5 730,-345.5 730,-316.5 730,-316.5 730,-310.5 736,-304.5 742,-304.5 742,-304.5 861,-304.5 861,-304.5 867,-304.5 873,-310.5 873,-316.5 873,-316.5 873,-345.5 873,-345.5 873,-351.5 867,-357.5 861,-357.5"/>
<text text-anchor="middle" x="801.5" y="-342.3" font-family="Helvetica,sans-Serif" font-size="14.00" fill="#000000">samples = 21.5%</text>
<text text-anchor="middle" x="801.5" y="-327.3" font-family="Helvetica,sans-Serif" font-size="14.00" fill="#000000">value = [0.0, 1.0]</text>
<text text-anchor="middle" x="801.5" y="-312.3" font-family="Helvetica,sans-Serif" font-size="14.00" fill="#000000">class = spam</text>
</g>
<!-- 12&#45;&gt;13 -->
<g id="edge13" class="edge">
<title>12&#45;&gt;13</title>
<path fill="none" stroke="#000000" d="M806.8805,-400.9465C806.0586,-390.2621 805.1481,-378.4254 804.3134,-367.5742"/>
<polygon fill="#000000" stroke="#000000" points="807.7985,-367.2442 803.5417,-357.5422 800.8191,-367.7812 807.7985,-367.2442"/>
</g>
<!-- 14 -->
<g id="node15" class="node">
<title>14</title>
<path fill="#e58139" stroke="#000000" d="M1020,-357.5C1020,-357.5 903,-357.5 903,-357.5 897,-357.5 891,-351.5 891,-345.5 891,-345.5 891,-316.5 891,-316.5 891,-310.5 897,-304.5 903,-304.5 903,-304.5 1020,-304.5 1020,-304.5 1026,-304.5 1032,-310.5 1032,-316.5 1032,-316.5 1032,-345.5 1032,-345.5 1032,-351.5 1026,-357.5 1020,-357.5"/>
<text text-anchor="middle" x="961.5" y="-342.3" font-family="Helvetica,sans-Serif" font-size="14.00" fill="#000000">samples = 0.9%</text>
<text text-anchor="middle" x="961.5" y="-327.3" font-family="Helvetica,sans-Serif" font-size="14.00" fill="#000000">value = [1.0, 0.0]</text>
<text text-anchor="middle" x="961.5" y="-312.3" font-family="Helvetica,sans-Serif" font-size="14.00" fill="#000000">class = notspam</text>
</g>
<!-- 12&#45;&gt;14 -->
<g id="edge14" class="edge">
<title>12&#45;&gt;14</title>
<path fill="none" stroke="#000000" d="M859.2705,-400.9465C876.9791,-388.8301 896.8532,-375.232 914.3368,-363.2696"/>
<polygon fill="#000000" stroke="#000000" points="916.4309,-366.0776 922.7076,-357.5422 912.4781,-360.3005 916.4309,-366.0776"/>
</g>
</g>
</svg>
